<svg xmlns="http://www.w3.org/2000/svg" xmlns:xlink="http://www.w3.org/1999/xlink" width="500" zoomAndPan="magnify" viewBox="0 0 375 374.999991" height="500" preserveAspectRatio="xMidYMid meet" version="1.0"><defs><clipPath id="982c3cb243"><path d="M 0 148 L 188 148 L 188 313.40625 L 0 313.40625 Z M 0 148 " clip-rule="nonzero"/></clipPath><clipPath id="32241b49f7"><path d="M 187 61.40625 L 375 61.40625 L 375 227 L 187 227 Z M 187 61.40625 " clip-rule="nonzero"/></clipPath></defs><g clip-path="url(#982c3cb243)"><path fill="#5e2bd2" d="M 126.269531 265.28125 L 126.269531 288.105469 L 22.898438 240.082031 L 22.898438 221.5625 L 126.269531 173.535156 L 126.269531 196.367188 L 48.097656 230.605469 L 48.097656 231.035156 Z M 187.660156 148.171875 L 14.792969 148.171875 C 6.632812 148.171875 0.015625 154.789062 0.015625 162.953125 L 0.015625 298.691406 C 0.015625 306.851562 6.632812 313.46875 14.792969 313.46875 L 139.671875 313.46875 L 187.660156 148.171875 " fill-opacity="1" fill-rule="nonzero"/></g><g clip-path="url(#32241b49f7)"><path fill="#5e2bd2" d="M 352.140625 154.042969 L 248.773438 201.421875 L 248.773438 178.589844 L 328.667969 144.351562 L 328.667969 143.921875 L 248.773438 109.675781 L 248.773438 86.851562 L 352.140625 134.230469 Z M 235.652344 61.488281 L 187.660156 226.785156 L 360.25 226.785156 C 368.410156 226.785156 375.027344 220.167969 375.027344 212.003906 L 375.027344 76.265625 C 375.027344 68.105469 368.410156 61.488281 360.25 61.488281 L 235.652344 61.488281 " fill-opacity="1" fill-rule="nonzero"/></g></svg>