<svg xmlns="http://www.w3.org/2000/svg" xmlns:xlink="http://www.w3.org/1999/xlink" width="500" zoomAndPan="magnify" viewBox="0 0 375 374.999991" height="500" preserveAspectRatio="xMidYMid meet" version="1.0"><defs><clipPath id="37fda379a9"><path d="M 1 9 L 366 9 L 366 374.679688 L 1 374.679688 Z M 1 9 " clip-rule="nonzero"/></clipPath></defs><g clip-path="url(#37fda379a9)"><path fill="#ffffff" d="M 262.152344 374.980469 C 261.554688 374.980469 260.957031 374.949219 260.359375 374.890625 C 259.765625 374.832031 259.171875 374.746094 258.585938 374.628906 C 258 374.511719 257.417969 374.367188 256.847656 374.191406 C 256.273438 374.019531 255.710938 373.816406 255.15625 373.585938 C 254.605469 373.359375 254.0625 373.101562 253.535156 372.820312 C 253.007812 372.539062 252.496094 372.230469 251.996094 371.898438 C 251.5 371.566406 251.019531 371.207031 250.554688 370.828125 C 250.09375 370.449219 249.648438 370.046875 249.226562 369.625 C 248.804688 369.199219 248.402344 368.757812 248.023438 368.292969 C 247.640625 367.832031 247.285156 367.351562 246.953125 366.855469 C 246.621094 366.355469 246.3125 365.84375 246.03125 365.316406 C 245.75 364.785156 245.492188 364.246094 245.261719 363.691406 C 245.035156 363.140625 244.832031 362.578125 244.660156 362.003906 C 244.484375 361.429688 244.339844 360.851562 244.222656 360.265625 C 244.105469 359.675781 244.019531 359.085938 243.960938 358.488281 C 243.902344 357.894531 243.871094 357.296875 243.871094 356.699219 L 243.871094 309.167969 C 244.15625 306.433594 244.152344 303.699219 243.863281 300.964844 C 243.574219 298.234375 243.003906 295.558594 242.15625 292.945312 C 241.304688 290.332031 240.191406 287.835938 238.816406 285.453125 C 237.445312 283.074219 235.839844 280.863281 234 278.820312 C 232.863281 277.585938 231.910156 276.21875 231.148438 274.722656 C 230.386719 273.226562 229.84375 271.65625 229.511719 270.011719 C 229.183594 268.363281 229.085938 266.703125 229.210938 265.03125 C 229.339844 263.355469 229.691406 261.730469 230.269531 260.15625 C 230.84375 258.578125 231.621094 257.109375 232.605469 255.746094 C 233.585938 254.382812 234.730469 253.179688 236.042969 252.132812 C 237.355469 251.085938 238.785156 250.238281 240.332031 249.582031 C 241.878906 248.929688 243.484375 248.5 245.152344 248.289062 C 289.757812 242.988281 330.890625 228.730469 330.890625 151.398438 C 330.894531 147.808594 330.632812 144.238281 330.113281 140.683594 C 329.589844 137.132812 328.808594 133.636719 327.773438 130.199219 C 326.734375 126.761719 325.449219 123.417969 323.921875 120.171875 C 322.390625 116.921875 320.632812 113.804688 318.640625 110.816406 C 316.8125 108.074219 315.269531 105.183594 314.011719 102.140625 C 312.75 99.097656 311.800781 95.960938 311.15625 92.730469 C 310.515625 89.5 310.191406 86.234375 310.191406 82.941406 C 310.1875 79.648438 310.507812 76.386719 311.148438 73.15625 C 312.808594 64.5625 312.808594 55.972656 311.148438 47.378906 C 297.375 52.035156 284.640625 58.675781 272.9375 67.304688 C 271.839844 68.085938 270.667969 68.738281 269.425781 69.257812 C 268.179688 69.78125 266.894531 70.160156 265.566406 70.394531 C 264.242188 70.632812 262.902344 70.722656 261.554688 70.664062 C 260.207031 70.605469 258.882812 70.398438 257.582031 70.046875 C 249.375 67.726562 241.046875 65.984375 232.597656 64.8125 C 224.144531 63.640625 215.65625 63.054688 207.125 63.054688 C 198.597656 63.054688 190.105469 63.640625 181.65625 64.8125 C 173.207031 65.984375 164.878906 67.726562 156.671875 70.046875 C 155.367188 70.398438 154.042969 70.605469 152.695312 70.664062 C 151.351562 70.722656 150.011719 70.632812 148.683594 70.394531 C 147.359375 70.160156 146.070312 69.78125 144.828125 69.257812 C 143.585938 68.738281 142.414062 68.085938 141.3125 67.304688 C 129.535156 58.574219 116.679688 51.929688 102.742188 47.378906 C 100.984375 55.972656 100.984375 64.5625 102.742188 73.15625 C 103.335938 76.429688 103.609375 79.726562 103.570312 83.054688 C 103.527344 86.378906 103.171875 89.671875 102.5 92.929688 C 101.824219 96.1875 100.847656 99.351562 99.566406 102.421875 C 98.285156 105.492188 96.722656 108.410156 94.878906 111.179688 C 92.898438 114.191406 91.144531 117.328125 89.621094 120.59375 C 88.097656 123.859375 86.816406 127.21875 85.777344 130.667969 C 84.742188 134.121094 83.957031 137.628906 83.429688 141.195312 C 82.90625 144.757812 82.636719 148.34375 82.632812 151.949219 C 82.632812 223.0625 117 242.074219 168.554688 248.65625 C 169.390625 248.757812 170.21875 248.921875 171.039062 249.140625 C 171.855469 249.359375 172.652344 249.632812 173.429688 249.964844 C 174.210938 250.292969 174.960938 250.675781 175.6875 251.109375 C 176.414062 251.542969 177.105469 252.027344 177.765625 252.554688 C 178.421875 253.085938 179.042969 253.660156 179.621094 254.277344 C 180.199219 254.890625 180.734375 255.546875 181.222656 256.234375 C 181.710938 256.925781 182.152344 257.644531 182.539062 258.398438 C 182.929688 259.148438 183.261719 259.921875 183.542969 260.722656 C 184.074219 262.277344 184.390625 263.875 184.492188 265.515625 C 184.59375 267.15625 184.472656 268.78125 184.136719 270.390625 C 183.796875 271.996094 183.253906 273.53125 182.5 274.996094 C 181.75 276.457031 180.816406 277.792969 179.703125 279.003906 C 177.925781 280.902344 176.363281 282.964844 175.011719 285.191406 C 173.664062 287.414062 172.554688 289.753906 171.6875 292.207031 C 170.824219 294.664062 170.21875 297.179688 169.875 299.757812 C 169.53125 302.339844 169.457031 304.925781 169.648438 307.519531 L 169.648438 356.699219 C 169.648438 357.296875 169.621094 357.894531 169.5625 358.488281 C 169.503906 359.085938 169.414062 359.675781 169.296875 360.265625 C 169.183594 360.851562 169.035156 361.429688 168.863281 362.003906 C 168.6875 362.578125 168.488281 363.140625 168.257812 363.691406 C 168.027344 364.246094 167.773438 364.785156 167.492188 365.316406 C 167.210938 365.84375 166.902344 366.355469 166.570312 366.855469 C 166.238281 367.351562 165.878906 367.832031 165.5 368.292969 C 165.121094 368.757812 164.71875 369.199219 164.296875 369.625 C 163.871094 370.046875 163.429688 370.449219 162.964844 370.828125 C 162.503906 371.207031 162.023438 371.566406 161.523438 371.898438 C 161.027344 372.230469 160.515625 372.539062 159.988281 372.820312 C 159.457031 373.101562 158.917969 373.359375 158.363281 373.585938 C 157.8125 373.816406 157.25 374.019531 156.675781 374.191406 C 156.101562 374.367188 155.523438 374.511719 154.933594 374.628906 C 154.347656 374.746094 153.757812 374.832031 153.160156 374.890625 C 152.566406 374.949219 151.96875 374.980469 151.367188 374.980469 C 150.769531 374.980469 150.171875 374.949219 149.578125 374.890625 C 148.980469 374.832031 148.390625 374.746094 147.800781 374.628906 C 147.214844 374.511719 146.636719 374.367188 146.0625 374.191406 C 145.488281 374.019531 144.925781 373.816406 144.371094 373.585938 C 143.820312 373.359375 143.277344 373.101562 142.75 372.820312 C 142.222656 372.539062 141.710938 372.230469 141.210938 371.898438 C 140.714844 371.566406 140.234375 371.207031 139.769531 370.828125 C 139.308594 370.449219 138.867188 370.046875 138.441406 369.625 C 138.019531 369.199219 137.617188 368.757812 137.238281 368.292969 C 136.855469 367.832031 136.5 367.351562 136.167969 366.855469 C 135.835938 366.355469 135.527344 365.84375 135.246094 365.316406 C 134.964844 364.785156 134.707031 364.246094 134.480469 363.691406 C 134.25 363.140625 134.046875 362.578125 133.875 362.003906 C 133.699219 361.429688 133.554688 360.851562 133.4375 360.265625 C 133.320312 359.675781 133.234375 359.085938 133.175781 358.488281 C 133.117188 357.894531 133.085938 357.296875 133.085938 356.699219 L 133.085938 346.277344 C 128.613281 346.792969 124.125 347.03125 119.621094 346.992188 C 115.117188 346.953125 110.632812 346.636719 106.171875 346.046875 C 101.707031 345.457031 97.292969 344.59375 92.9375 343.460938 C 88.578125 342.328125 84.304688 340.929688 80.117188 339.269531 C 75.933594 337.609375 71.863281 335.699219 67.914062 333.539062 C 63.960938 331.375 60.160156 328.980469 56.503906 326.351562 C 52.847656 323.722656 49.367188 320.878906 46.0625 317.820312 C 42.757812 314.761719 39.652344 311.511719 36.746094 308.070312 C 30.695312 301.363281 23.625 296 15.539062 291.980469 C 14.957031 291.832031 14.386719 291.65625 13.824219 291.449219 C 13.257812 291.242188 12.707031 291.011719 12.167969 290.75 C 11.625 290.492188 11.097656 290.203125 10.585938 289.894531 C 10.074219 289.582031 9.578125 289.246094 9.097656 288.882812 C 8.617188 288.523438 8.160156 288.140625 7.714844 287.734375 C 7.273438 287.328125 6.855469 286.902344 6.453125 286.457031 C 6.054688 286.007812 5.675781 285.542969 5.324219 285.058594 C 4.96875 284.574219 4.640625 284.074219 4.335938 283.558594 C 4.027344 283.039062 3.75 282.511719 3.496094 281.964844 C 3.246094 281.421875 3.019531 280.867188 2.820312 280.300781 C 2.621094 279.734375 2.453125 279.160156 2.308594 278.578125 C 2.167969 277.996094 2.054688 277.40625 1.972656 276.8125 C 1.886719 276.21875 1.832031 275.621094 1.808594 275.023438 C 1.78125 274.421875 1.785156 273.824219 1.820312 273.226562 C 1.851562 272.625 1.914062 272.03125 2.007812 271.4375 C 2.101562 270.84375 2.21875 270.257812 2.371094 269.675781 C 2.519531 269.097656 2.699219 268.523438 2.902344 267.960938 C 3.109375 267.398438 3.34375 266.84375 3.601562 266.304688 C 3.863281 265.765625 4.148438 265.238281 4.460938 264.726562 C 4.773438 264.214844 5.109375 263.71875 5.46875 263.238281 C 5.832031 262.757812 6.214844 262.296875 6.621094 261.855469 C 7.027344 261.414062 7.453125 260.992188 7.898438 260.59375 C 8.347656 260.195312 8.8125 259.816406 9.296875 259.464844 C 9.78125 259.109375 10.28125 258.78125 10.796875 258.476562 C 11.316406 258.171875 11.847656 257.890625 12.390625 257.640625 C 12.933594 257.386719 13.488281 257.160156 14.054688 256.960938 C 14.621094 256.765625 15.195312 256.59375 15.777344 256.453125 C 16.363281 256.3125 16.949219 256.199219 17.542969 256.113281 C 18.136719 256.03125 18.734375 255.976562 19.335938 255.953125 C 19.933594 255.925781 20.53125 255.929688 21.132812 255.964844 C 21.730469 255.996094 22.328125 256.0625 22.917969 256.152344 C 23.511719 256.246094 24.097656 256.367188 24.679688 256.515625 C 31.710938 259.078125 38.320312 262.460938 44.507812 266.671875 C 50.699219 270.878906 56.273438 275.78125 61.242188 281.378906 C 79.523438 299.660156 97.804688 315.746094 132.539062 309.167969 C 132.234375 304.257812 132.433594 299.371094 133.144531 294.507812 C 133.851562 289.640625 135.050781 284.898438 136.742188 280.28125 C 99.085938 270.777344 45.335938 243.71875 45.335938 152.3125 C 45.324219 146.929688 45.707031 141.574219 46.484375 136.246094 C 47.261719 130.917969 48.421875 125.675781 49.972656 120.523438 C 51.519531 115.367188 53.4375 110.351562 55.722656 105.476562 C 58.011719 100.601562 60.644531 95.921875 63.617188 91.4375 C 64.730469 89.769531 65.492188 87.957031 65.902344 86 C 66.3125 84.039062 66.34375 82.074219 65.996094 80.101562 C 65.078125 75.195312 64.515625 70.246094 64.308594 65.257812 C 64.101562 60.269531 64.253906 55.289062 64.765625 50.324219 C 65.273438 45.355469 66.140625 40.453125 67.355469 35.609375 C 68.574219 30.769531 70.128906 26.039062 72.027344 21.417969 C 72.546875 20.179688 73.195312 19.015625 73.96875 17.917969 C 74.746094 16.824219 75.628906 15.824219 76.625 14.925781 C 77.621094 14.023438 78.703125 13.242188 79.867188 12.582031 C 81.035156 11.917969 82.261719 11.390625 83.546875 11 C 89.761719 9.171875 112.0625 5.515625 154.292969 32.9375 C 162.808594 30.886719 171.417969 29.347656 180.117188 28.316406 C 188.816406 27.28125 197.542969 26.765625 206.304688 26.765625 C 215.0625 26.765625 223.792969 27.28125 232.492188 28.316406 C 241.191406 29.347656 249.796875 30.886719 258.3125 32.9375 C 300.542969 5.515625 322.847656 8.988281 328.878906 11 C 330.164062 11.390625 331.386719 11.917969 332.554688 12.582031 C 333.722656 13.242188 334.804688 14.023438 335.800781 14.925781 C 336.796875 15.824219 337.679688 16.824219 338.457031 17.917969 C 339.230469 19.015625 339.878906 20.179688 340.398438 21.417969 C 342.296875 26.050781 343.859375 30.796875 345.078125 35.65625 C 346.296875 40.511719 347.160156 45.433594 347.671875 50.414062 C 348.183594 55.398438 348.332031 60.390625 348.125 65.394531 C 347.917969 70.398438 347.351562 75.363281 346.429688 80.285156 C 346.050781 82.085938 346.039062 83.890625 346.386719 85.699219 C 346.734375 87.503906 347.417969 89.175781 348.441406 90.707031 C 351.425781 95.203125 354.0625 99.898438 356.355469 104.785156 C 358.644531 109.675781 360.566406 114.707031 362.113281 119.878906 C 363.664062 125.050781 364.824219 130.308594 365.59375 135.652344 C 366.367188 140.996094 366.742188 146.367188 366.722656 151.765625 C 366.722656 244.449219 313.339844 271.324219 275.316406 279.734375 C 276.992188 284.636719 278.167969 289.660156 278.84375 294.796875 C 279.519531 299.9375 279.683594 305.09375 279.335938 310.261719 L 279.335938 356.699219 C 279.339844 357.851562 279.234375 359 279.019531 360.132812 C 278.800781 361.269531 278.484375 362.375 278.058594 363.449219 C 277.632812 364.523438 277.113281 365.550781 276.492188 366.523438 C 275.875 367.5 275.167969 368.410156 274.375 369.25 C 273.585938 370.09375 272.722656 370.851562 271.785156 371.53125 C 270.851562 372.210938 269.859375 372.792969 268.8125 373.285156 C 267.765625 373.773438 266.683594 374.164062 265.5625 374.449219 C 264.441406 374.730469 263.304688 374.910156 262.152344 374.980469 Z M 262.152344 374.980469 " fill-opacity="1" fill-rule="nonzero"/></g></svg>