<svg xmlns="http://www.w3.org/2000/svg" xmlns:xlink="http://www.w3.org/1999/xlink" width="500" zoomAndPan="magnify" viewBox="0 0 375 374.999991" height="500" preserveAspectRatio="xMidYMid meet" version="1.0"><path fill="#ffffff" d="M 77.8125 54.6875 C 77.8125 76.265625 60.46875 93.75 39.0625 93.75 C 17.65625 93.75 0.3125 76.265625 0.3125 54.6875 C 0.3125 33.125 17.65625 15.625 39.0625 15.625 C 60.46875 15.625 77.8125 33.125 77.8125 54.6875 Z M 78.125 125 L 0 125 L 0 375 L 78.125 375 Z M 202.84375 125 L 125.21875 125 L 125.21875 375 L 202.859375 375 L 202.859375 243.765625 C 202.859375 170.796875 297.0625 164.828125 297.0625 243.765625 L 297.0625 375 L 375 375 L 375 216.703125 C 375 93.578125 235.59375 98.0625 202.84375 158.671875 Z M 202.84375 125 " fill-opacity="1" fill-rule="nonzero"/></svg>